<?xml version="1.0" encoding="iso-8859-1"?>
<!-- Uploaded to: SVG Repo, www.svgrepo.com, Generator: SVG Repo Mixer Tools -->
<svg height="800px" width="800px" version="1.1" id="Layer_1" xmlns="http://www.w3.org/2000/svg" xmlns:xlink="http://www.w3.org/1999/xlink" 
	 viewBox="0 0 502 502" xml:space="preserve">
<g>
	<path style="fill:#fcd34d;" d="M383.624,292.569c0,0-11.89,13.469-27.789,33.651h55.577
		C395.514,306.038,383.624,292.569,383.624,292.569z"/>
	<path style="fill:#fcd34d;" d="M118.376,292.569c0,0-11.89,13.469-27.789,33.651h55.577
		C130.265,306.038,118.376,292.569,118.376,292.569z"/>
	<g>
		<path style="fill:#fcd34d;" d="M383.624,35.238c-18.318,0-35.571,4.551-50.701,12.575c34.067,24.949,56.195,65.236,56.195,110.697
			c0,30.358-22.033,73.498-48.435,114.299c5.269,7.067,10.391,13.716,15.152,19.76h55.577C443.523,251.809,492,183.647,492,143.614
			C492,83.76,443.478,35.238,383.624,35.238z"/>
		<path style="fill:#fcd34d;" d="M170.22,48.423c-15.4-8.405-33.064-13.184-51.845-13.184C58.522,35.238,10,83.76,10,143.614
			c0,40.033,48.477,108.195,80.587,148.955h55.577c5.08-6.448,10.569-13.583,16.211-21.183
			c-25.992-40.378-47.515-82.871-47.515-112.876C114.861,113.42,136.626,73.416,170.22,48.423z"/>
		<path style="fill:#803469;" d="M332.924,47.813c-22.685-16.614-50.661-26.431-80.934-26.431
			c-30.644,0-58.938,10.055-81.769,27.041c-33.594,24.994-55.359,64.998-55.359,110.088c0,30.005,21.523,72.498,47.515,112.876
			c17.887,27.788,37.89,54.574,54.453,75.598h70.322c16.279-20.665,35.882-46.897,53.533-74.175
			c26.401-40.8,48.435-83.941,48.435-114.299C389.118,113.049,366.99,72.763,332.924,47.813z"/>
	</g>
	<path style="fill:#803469;" d="M251.99,346.984c0,0-15.044,17.043-35.161,42.579h70.322
		C267.034,364.026,251.99,346.984,251.99,346.984z"/>
	<g>
		<path d="M405.193,302.568h6.22c3.064,0,5.959-1.404,7.855-3.812C457.01,250.849,502,185.044,502,143.614
			c0-65.272-53.104-118.376-118.376-118.376c-17.201,0-34.293,3.791-49.815,10.987c-24.242-16.273-52.398-24.844-81.819-24.844
			c-29.784,0-58.219,8.759-82.635,25.387c-15.833-7.553-33.325-11.531-50.978-11.531C53.103,25.238,0,78.342,0,143.614
			c0,41.43,44.99,107.234,82.731,155.143c1.896,2.407,4.792,3.812,7.855,3.812h6.22c-4.078,4.945-8.851,10.832-14.075,17.463
			c-2.37,3.009-2.813,7.107-1.141,10.554c1.672,3.446,5.166,5.635,8.997,5.635h1.458v50.374c0,5.522,4.477,10,10,10s10-4.478,10-10
			V336.22h34.119c3.831,0,7.325-2.188,8.997-5.635c1.672-3.446,1.229-7.545-1.141-10.554c-5.224-6.63-9.997-12.518-14.075-17.463
			h6.219c3.064,0,5.959-1.404,7.855-3.812c2.632-3.34,5.232-6.689,7.793-10.029c13.645,20.357,29.459,41.974,47.161,64.444
			c1.896,2.407,4.791,3.812,7.855,3.812h13.513c-5.841,7.014-13.167,15.98-21.369,26.391c-2.37,3.009-2.813,7.107-1.141,10.554
			c1.672,3.446,5.166,5.635,8.997,5.635h9.82v38.497c0,5.522,4.477,10,10,10s10-4.478,10-10v-38.497h40.502
			c3.83,0,7.324-2.188,8.997-5.635c1.672-3.446,1.229-7.545-1.142-10.554c-8.201-10.41-15.527-19.376-21.368-26.391h13.513
			c3.064,0,5.959-1.404,7.855-3.812c17.288-21.945,32.793-43.102,46.237-63.072c2.225,2.891,4.472,5.783,6.737,8.658
			c1.896,2.406,4.791,3.811,7.854,3.811h6.219c-4.078,4.945-8.851,10.832-14.074,17.463c-2.37,3.01-2.813,7.108-1.142,10.554
			c1.673,3.446,5.167,5.635,8.997,5.635h2.447v50.374c0,5.522,4.478,10,10,10s10-4.478,10-10V336.22h33.13
			c3.831,0,7.324-2.188,8.997-5.635c1.672-3.446,1.229-7.545-1.142-10.554C414.045,313.401,409.272,307.513,405.193,302.568z
			 M111.477,316.22c2.589-3.146,4.912-5.929,6.899-8.285c1.986,2.356,4.309,5.139,6.899,8.285H111.477z M237.659,379.563
			c5.718-7.014,10.626-12.877,14.331-17.245c3.705,4.368,8.613,10.231,14.332,17.245H237.659z M141.297,282.568H95.455
			C47.45,221.013,20,170.512,20,143.614c0-54.245,44.131-98.376,98.376-98.376c11.341,0,22.599,1.967,33.199,5.756l0.006-0.001
			c-12.391,11.595-22.802,25.321-30.533,40.367c-10.589,20.608-16.187,43.829-16.187,67.15c0,26.783,15.266,64.586,45.374,112.417
			l-0.006-0.002C147.315,274.787,144.33,278.679,141.297,282.568z M282.287,336.983h-60.594
			c-19.561-25.026-36.675-48.898-50.908-71.011c-30.043-46.672-45.923-83.831-45.923-107.462c0-40.596,18.708-77.797,51.328-102.064
			c22.04-16.397,48.251-25.064,75.8-25.064c27.198,0,53.141,8.472,75.026,24.499c32.625,23.895,52.103,62.261,52.103,102.63
			c0,23.875-16.193,61.521-46.83,108.865C318.224,289.111,301.414,312.511,282.287,336.983z M352.85,272.352l-0.006,0.002
			c30.705-48.51,46.275-86.792,46.275-113.842c0-41.068-17.418-80.336-47.27-108.014l0.013,0.002
			c10.182-3.463,20.945-5.26,31.763-5.26c54.245,0,98.376,44.131,98.376,98.376c0,26.897-27.449,77.398-75.454,138.954h-45.843
			C358.051,279.166,355.426,275.753,352.85,272.352z M376.726,316.22c2.589-3.146,4.912-5.929,6.898-8.286
			c1.986,2.356,4.309,5.138,6.899,8.286H376.726z"/>
		<path d="M236.649,458.741c-5.523,0-10,4.478-10,10v11.877c0,5.522,4.477,10,10,10s10-4.478,10-10v-11.877
			C246.649,463.219,242.172,458.741,236.649,458.741z"/>
		<path d="M251.99,44.063c-63.199,0-114.616,51.416-114.616,114.615c0,11.92,3.594,25.944,10.988,42.875
			c1.641,3.759,5.314,6.001,9.169,6.001c1.336,0,2.694-0.27,3.997-0.839c5.062-2.21,7.373-8.104,5.162-13.166
			c-6.182-14.156-9.316-25.889-9.316-34.871c0-52.171,42.444-94.615,94.616-94.615c5.523,0,10-4.478,10-10
			S257.513,44.063,251.99,44.063z"/>
		<path d="M181.483,222.212c-2.78-4.772-8.905-6.384-13.675-3.604c-4.771,2.781-6.385,8.903-3.604,13.675
			c3.397,5.829,7.162,11.952,11.188,18.199c1.912,2.967,5.129,4.583,8.415,4.583c1.855,0,3.733-0.516,5.408-1.596
			c4.642-2.992,5.98-9.181,2.988-13.823C188.337,233.649,184.73,227.783,181.483,222.212z"/>
	</g>
</g>
</svg>