<?xml version="1.0" encoding="iso-8859-1"?>
<!-- Uploaded to: SVG Repo, www.svgrepo.com, Generator: SVG Repo Mixer Tools -->
<svg height="800px" width="800px" version="1.1" id="Layer_1" xmlns="http://www.w3.org/2000/svg" xmlns:xlink="http://www.w3.org/1999/xlink" 
	 viewBox="0 0 512 512" xml:space="preserve">
<path style="fill:#CAEEC5;" d="M503.395,118.4v80.671c0,133.108-111.325,242.018-247.394,242.018l0,0
	c-136.068,0-247.396-108.909-247.396-242.017v-80.671h494.79V118.4z"/>
<path style="fill:#663310;" d="M396.515,114.402c19.5,0,35.311,15.804,35.311,35.303s-15.811,35.303-35.311,35.303
	c-19.503,0-35.311-15.804-35.311-35.303C361.204,130.207,377.012,114.402,396.515,114.402L396.515,114.402z"/>
<path style="fill:#391B10;" d="M431.825,149.705c0,19.499-15.811,35.303-35.311,35.303c-15.051,0-27.893-9.417-32.976-22.678
	c3.924,1.504,8.181,2.336,12.635,2.336c19.5,0,35.311-15.805,35.311-35.303c0-4.45-0.831-8.704-2.334-12.626
	C422.408,121.823,431.825,134.66,431.825,149.705z"/>
<path style="fill:#CF8F3D;" d="M115.039,293.534c-26.158-19.666-37.465-54.878-25.456-87.105
	c13.621-36.54,76.868-66.688,96.234-43.082c6.083,7.412-0.981,20.662-9.722,36.072c-10.683,18.835-22.247,42.417-16.525,64.455
	C167.058,292.701,152.994,322.076,115.039,293.534L115.039,293.534z"/>
<path style="fill:#B76700;" d="M161.215,283.802c-2.23,19.616-17.275,31.465-46.176,9.731
	c-26.158-19.666-37.465-54.878-25.456-87.105c10.611-28.468,51.341-53.051,77.979-51.363c-16.033,9.576-30.199,23.614-35.843,38.756
	c-12.009,32.227-0.702,67.439,25.456,87.105C158.554,281.964,159.899,282.914,161.215,283.802z"/>
<path style="fill:#DDC98B;" d="M390.825,275.004c-1.794,7.27-4.209,14.489-7.276,21.59c-22.335,51.746-72.858,82.637-125.87,82.491
	c-36.468-38.471-48.637-96.417-26.298-148.162c3.07-7.103,6.665-13.811,10.728-20.1c26.611,1.046,53.855,7.012,80.266,18.409
	C348.781,240.631,371.806,256.36,390.825,275.004L390.825,275.004z"/>
<path style="fill:#BC9A5E;" d="M390.825,275.004c-1.794,7.27-4.209,14.49-7.276,21.59c-22.335,51.746-72.858,82.639-125.87,82.491
	c-11.387-12.012-20.403-25.922-26.74-40.948c48.412-11.419,90.997-44.765,112.221-93.934c0.55-1.272,1.076-2.549,1.591-3.828
	C361.956,250.136,377.393,261.839,390.825,275.004z"/>
<path style="fill:#DDC98B;" d="M140.646,45.652c23.19-29.247,63.681-41.11,100.09-26.476
	c41.272,16.593,73.804,89.595,46.323,110.985c-8.633,6.717-23.538-1.723-40.861-12.142c-21.171-12.731-47.728-26.606-73.029-20.724
	C140.071,104.992,106.982,88.101,140.646,45.652L140.646,45.652z"/>
<path style="fill:#BC9A5E;" d="M246.198,118.019c-21.171-12.731-47.728-26.606-73.029-20.724
	c-21.788,5.066-43.569-0.524-46.309-17.044c23.422-27.794,62.885-38.801,98.458-24.503c27.622,11.105,51.325,47.474,55.747,76.73
	C272.281,133.366,260.01,126.326,246.198,118.019z"/>
<path style="fill:#CF8F3D;" d="M322.375,229.233c26.406,11.398,49.431,27.127,68.45,45.771c-1.794,7.27-4.209,14.49-7.276,21.59
	c-0.881,2.042-1.821,4.038-2.788,6.013c-60.967-4.224-115.143-27.147-153.307-61.481c1.167-3.423,2.47-6.826,3.927-10.203
	c3.07-7.103,6.665-13.811,10.728-20.1C268.72,211.869,295.964,217.836,322.375,229.233z"/>
<path style="fill:#874D20;" d="M395.832,141.983c0,5.941-4.816,10.756-10.756,10.756c-5.941,0-10.756-4.816-10.756-10.756
	s4.816-10.756,10.756-10.756C391.016,131.227,395.832,136.042,395.832,141.983z"/>
<path style="fill:#B76700;" d="M390.825,275.004c-1.794,7.27-4.209,14.49-7.276,21.59c-0.881,2.042-1.821,4.038-2.788,6.013
	c-24.026-1.665-45.716-5.829-67.069-12.856c13.67-14.15,23.173-31.347,30.142-49.891
	C361.409,249.724,377.157,261.606,390.825,275.004z"/>
<path d="M456.067,499.092c0,4.752-3.853,8.605-8.605,8.605H64.538c-4.752,0-8.605-3.853-8.605-8.605s3.853-8.605,8.605-8.605
	h382.924C452.214,490.487,456.067,494.34,456.067,499.092z M512,118.4v80.671c0,66.712-26.727,129.598-75.259,177.076
	c-48.481,47.428-112.669,73.547-180.74,73.547s-132.259-26.12-180.741-73.547C26.728,328.67,0,265.784,0,199.071V118.4
	c0-4.752,3.853-8.605,8.605-8.605h202.468c-8.489-3.209-17.098-5.287-25.469-5.287c-3.624,0-7.151,0.393-10.486,1.168
	c-5.784,1.345-11.566,2.028-17.188,2.028c-17.947,0-31.505-6.755-37.196-18.534c-4.419-9.144-5.72-25.044,13.17-48.864
	c17.875-22.544,45.752-36.003,74.572-36.003c12.161,0,24.094,2.318,35.469,6.889c32.297,12.984,56.899,53.849,61.172,84.265
	c0.713,5.079,0.862,9.87,0.502,14.338h72.621c5.569-2.559,11.754-3.998,18.275-3.998c6.519,0,12.706,1.439,18.275,3.998h88.604
	C508.147,109.795,512,113.648,512,118.4z M396.515,123.007c-14.725,0-26.706,11.977-26.706,26.697
	c0,14.722,11.98,26.698,26.706,26.698s26.706-11.977,26.706-26.698C423.22,134.984,411.24,123.007,396.515,123.007z M185.604,87.298
	c23.092,0,45.83,11.802,65.028,23.347c9.342,5.619,22.135,13.313,28.891,13.313c1.495,0,2.025-0.413,2.251-0.588
	c7.753-6.034,7.276-18.578,6.3-25.519c-3.547-25.25-25.179-60.491-50.548-70.69c-9.325-3.746-19.099-5.647-29.051-5.647
	c-23.612,0-46.448,11.023-61.087,29.486c-10.262,12.939-14.33,24.123-11.159,30.682c2.627,5.435,10.941,8.812,21.701,8.812
	c4.311,0,8.781-0.531,13.289-1.58C175.831,87.841,180.67,87.298,185.604,87.298z M494.79,127.005h-60.697
	c4.02,6.628,6.338,14.398,6.338,22.699c0,24.211-19.7,43.908-43.916,43.908s-43.916-19.698-43.916-43.908
	c0-8.302,2.317-16.071,6.338-22.699h-58.172c-2.148,3.901-4.959,7.251-8.421,9.946c-3.596,2.798-7.909,4.216-12.822,4.216
	c-10.031,0-21.415-6.028-35.068-14.163H17.21v72.066c0,128.703,107.121,233.413,238.791,233.413
	c131.668,0,238.789-104.709,238.789-233.413V127.005z M192.47,157.887c10.095,12.303,0.444,29.321-8.889,45.777
	c-10.956,19.317-20.44,39.72-15.682,58.046c4.295,16.536,2.342,32.25-5.225,42.034c-5.08,6.569-12.24,10.041-20.703,10.041
	c-9.502,0-20.304-4.5-32.104-13.374c-14.256-10.719-24.95-26.075-30.11-43.241c-5.335-17.75-4.726-36.335,1.762-53.746
	c11.976-32.129,54.666-57.049,83.4-57.049C176.763,146.374,186.289,150.355,192.47,157.887z M179.166,168.804
	c-2.842-3.464-7.635-5.22-14.247-5.22c-22.589,0-58.069,21.157-67.273,45.85c-10.327,27.715-1.049,59.469,22.565,77.222
	c10.902,8.198,17.851,9.919,21.761,9.919c3.063,0,5.317-1.068,7.089-3.36c4.138-5.35,5.015-16.272,2.181-27.179
	c-6.316-24.324,5.236-49.471,17.369-70.863c4.085-7.202,7.906-14.12,9.758-19.564C179.75,171.553,179.661,169.409,179.166,168.804z
	 M361.204,66.689h2.279c4.752,0,8.605-3.853,8.605-8.605s-3.853-8.605-8.605-8.605h-2.279c-4.752,0-8.605,3.853-8.605,8.605
	S356.452,66.689,361.204,66.689z M84.413,149.786c0-4.752-3.852-8.605-8.605-8.605h-2.275c-4.752,0-8.605,3.853-8.605,8.605
	c0,4.752,3.853,8.605,8.605,8.605h2.275C80.56,158.391,84.413,154.538,84.413,149.786z M448.591,73.143h2.278
	c4.752,0,8.605-3.853,8.605-8.605c0-4.753-3.853-8.605-8.605-8.605h-2.278c-4.752,0-8.605,3.852-8.605,8.605
	C439.986,69.29,443.838,73.143,448.591,73.143z M178.641,342.875h-2.279c-4.752,0-8.605,3.853-8.605,8.605s3.853,8.605,8.605,8.605
	h2.279c4.752,0,8.605-3.853,8.605-8.605S183.393,342.875,178.641,342.875z M397.602,269.702c1.616,2.065,2.215,4.778,1.577,7.364
	c-1.928,7.807-4.528,15.525-7.731,22.94c-0.559,1.296-1.167,2.633-1.849,4.074c-0.324,0.693-0.657,1.378-0.991,2.063
	c-0.041,0.085-0.077,0.162-0.119,0.247c-0.008,0.016-0.018,0.029-0.027,0.045c-24.318,49.582-74.741,81.255-130.407,81.255
	l-0.4-0.001c-2.353-0.006-4.603-0.977-6.221-2.685c-37.337-39.388-49.387-95.789-32.154-146.542c0.012-0.038,0.017-0.076,0.03-0.114
	c0.024-0.069,0.051-0.134,0.073-0.203c0.554-1.62,1.141-3.231,1.755-4.838c0.065-0.17,0.124-0.343,0.188-0.513
	c0.683-1.77,1.398-3.531,2.154-5.283c3.215-7.44,7.05-14.625,11.401-21.358c1.65-2.556,4.521-4.049,7.566-3.929
	c6.205,0.244,12.386,0.755,18.537,1.501c2.957,0.357,5.907,0.766,8.849,1.238c2.334,0.376,4.662,0.794,6.985,1.241
	c16.656,3.208,33.035,8.253,48.965,15.127c26.772,11.558,50.682,27.547,71.064,47.528
	C397.121,269.126,397.372,269.408,397.602,269.702z M373.091,298.703c0.367-0.75,0.7-1.449,1.019-2.124
	c0.524-1.124,1.044-2.25,1.538-3.394c2.175-5.035,4.035-10.225,5.55-15.486c-11.01-10.296-23.085-19.375-36.098-27.175
	c-8.336-4.996-17.054-9.472-26.135-13.392c-14.541-6.275-29.474-10.919-44.655-13.899c-9.108-1.788-18.306-2.976-27.561-3.558
	c-0.696,1.175-1.375,2.363-2.035,3.564c-1.98,3.602-3.798,7.311-5.434,11.097c-0.592,1.369-1.167,2.771-1.721,4.193
	c25.474,21.618,57.474,37.883,92.929,47.187c4.596,1.207,7.345,5.911,6.139,10.509c-1.207,4.594-5.913,7.339-10.508,6.139
	c-35.38-9.285-67.615-25.124-94.053-46.095c-9.305,40.174,1.291,82.821,29.343,114.17
	C309.205,369.196,352.172,341.498,373.091,298.703z"/>
</svg>